<?xml version="1.0" standalone="no"?>
<!DOCTYPE svg PUBLIC "-//W3C//DTD SVG 20010904//EN"
 "http://www.w3.org/TR/2001/REC-SVG-20010904/DTD/svg10.dtd">
<svg version="1.0" xmlns="http://www.w3.org/2000/svg"
 width="512.000000pt" height="512.000000pt" viewBox="0 0 512.000000 512.000000"
 preserveAspectRatio="xMidYMid meet">
<metadata>
Created by potrace 1.14, written by Peter Selinger 2001-2017
</metadata>
<g transform="translate(0.000000,512.000000) scale(0.100000,-0.100000)"
fill="#000000" stroke="none">
<path d="M2445 4918 c-174 -23 -355 -187 -355 -323 0 -52 6 -51 -115 -26 -140
29 -249 15 -332 -41 -91 -62 -124 -137 -119 -276 5 -181 85 -266 246 -264 101
2 176 22 291 80 l96 48 69 -59 c138 -117 235 -135 424 -78 l95 29 11 -57 c24
-115 62 -177 138 -225 65 -41 112 -54 173 -50 130 9 225 89 267 226 l18 57 81
-2 c73 -1 89 2 142 28 33 17 83 54 112 83 28 28 53 52 56 52 2 0 13 -8 25 -17
11 -10 30 -26 43 -37 52 -43 145 -96 203 -116 203 -67 371 13 439 210 28 79
26 223 -3 310 -12 36 -25 67 -29 70 -3 3 -19 22 -35 44 -61 81 -185 136 -317
140 -130 5 -270 -39 -382 -120 l-51 -37 -18 24 c-123 157 -220 218 -352 220
-89 2 -151 -28 -224 -105 l-58 -63 -20 27 c-137 192 -312 276 -519 248z"/>
<path d="M635 3863 c-9 -32 -27 -92 -40 -133 -59 -189 -164 -616 -189 -770 -3
-19 -8 -46 -10 -60 -6 -31 -36 -216 -41 -250 -2 -14 -7 -52 -10 -85 -4 -33 -8
-71 -10 -85 -2 -14 -6 -54 -9 -90 -4 -36 -8 -81 -11 -100 -2 -19 -7 -71 -10
-115 -3 -44 -8 -107 -11 -140 -3 -33 -6 -199 -7 -369 l-1 -308 49 -19 c158
-62 403 -121 550 -135 164 -15 315 -22 515 -25 88 -1 116 2 122 12 4 8 20 84
36 169 l28 156 -250 -1 c-310 0 -434 14 -612 71 l-81 25 3 232 c1 128 5 266 8
307 3 41 8 102 11 135 3 33 7 76 10 95 2 19 7 58 10 85 4 28 13 86 20 130 8
44 16 96 20 115 31 187 177 736 202 761 6 6 46 2 105 -11 53 -11 121 -23 150
-26 29 -3 64 -7 78 -10 73 -13 443 -25 482 -16 15 4 16 20 12 160 -3 86 -6
157 -7 158 -2 2 -51 7 -202 20 -87 7 -107 10 -170 19 -63 9 -82 12 -125 19
-19 3 -46 8 -60 10 -113 20 -419 91 -522 122 -13 4 -20 -8 -33 -53z"/>
<path d="M2082 3869 c-24 -10 -68 -26 -98 -35 l-55 -16 8 -121 c17 -288 3
-803 -32 -1182 -7 -72 -16 -159 -20 -195 -3 -19 -7 -64 -10 -100 -5 -67 -15
-152 -21 -183 -2 -10 -6 -46 -9 -80 -3 -34 -8 -69 -10 -77 -2 -8 -7 -35 -10
-60 -3 -25 -8 -56 -10 -70 -3 -14 -7 -41 -10 -60 -3 -19 -7 -46 -10 -60 -3
-14 -7 -41 -10 -60 -17 -106 -32 -187 -70 -380 -3 -14 -7 -37 -10 -52 -5 -29
-33 -147 -42 -183 -3 -11 -6 -33 -7 -49 l-1 -29 1345 -1 1346 -1 -13 60 c-7
33 -15 75 -18 92 -6 38 -33 189 -38 218 -3 11 -7 41 -11 66 -4 25 -9 57 -11
70 -19 121 -35 221 -40 254 -3 23 -7 50 -9 60 -2 11 -7 47 -10 80 -4 33 -11
87 -16 120 -5 33 -12 85 -15 115 -3 30 -8 62 -10 70 -2 8 -7 50 -10 92 -3 42
-8 92 -10 110 -2 18 -6 62 -10 98 -3 36 -8 72 -10 80 -2 8 -7 60 -10 115 -4
55 -8 116 -10 135 -20 199 -28 816 -13 962 7 68 7 68 -20 74 -90 20 -117 30
-208 75 l-102 51 -40 -27 c-51 -34 -136 -66 -187 -71 -22 -3 -41 -9 -43 -14
-2 -5 -16 -28 -31 -51 -52 -77 -122 -139 -200 -176 -125 -60 -278 -58 -411 6
-65 31 -177 139 -205 198 -11 22 -22 40 -25 38 -21 -12 -187 -20 -229 -11 -73
16 -149 52 -217 103 -17 13 -33 23 -35 22 -2 0 -24 -9 -47 -20z"/>
<path d="M1359 692 c-15 -3 -196 -468 -186 -479 7 -6 3566 -8 3572 -1 2 2 -5
22 -15 43 -20 41 -49 105 -140 310 -30 66 -55 121 -56 123 -3 4 -3155 8 -3175
4z"/>
</g>
</svg>
